solid csg
facet normal -1 0 0
outer loop
vertex -1.5 1.5 0
vertex -1.5 -1.5 0
vertex -1.5 -1.5 3
endloop
endfacet
facet normal -1 0 0
outer loop
vertex -1.5 1.5 0
vertex -1.5 -1.5 3
vertex -1.5 1.5 3
endloop
endfacet
facet normal 1 0 0
outer loop
vertex 1.5 1.5 0
vertex 1.5 1.5 3
vertex 1.5 -1.5 3
endloop
endfacet
facet normal 1 0 0
outer loop
vertex 1.5 1.5 0
vertex 1.5 -1.5 3
vertex 1.5 -1.5 0
endloop
endfacet
facet normal 0 0 -1
outer loop
vertex -1.5 1.5 0
vertex 1.5 1.5 0
vertex 1.5 -1.5 0
endloop
endfacet
facet normal 0 0 -1
outer loop
vertex -1.5 1.5 0
vertex 1.5 -1.5 0
vertex -1.5 -1.5 0
endloop
endfacet
facet normal 0 0 1
outer loop
vertex -1.5 1.5 3
vertex -1.5 -1.5 3
vertex 1.5 -1.5 3
endloop
endfacet
facet normal 0 0 1
outer loop
vertex -1.5 1.5 3
vertex 1.5 -1.5 3
vertex 1.5 1.5 3
endloop
endfacet
facet normal 0 1 0
outer loop
vertex 1.5 1.5 3
vertex 1.5 1.5 2.5
vertex -1.5 1.5 2.5
endloop
endfacet
facet normal 0 1 0
outer loop
vertex 1.5 1.5 3
vertex -1.5 1.5 2.5
vertex -1.5 1.5 3
endloop
endfacet
facet normal 0 1 0
outer loop
vertex -1.1102230246251565e-15 1.5 2.5
vertex -0.19509032201612975 1.5 2.48078528040323
vertex -1.5 1.5 2.48078528040323
endloop
endfacet
facet normal 0 1 0
outer loop
vertex -1.1102230246251565e-15 1.5 2.5
vertex -1.5 1.5 2.48078528040323
vertex -1.5 1.5 2.5
endloop
endfacet
facet normal 0 1 0
outer loop
vertex 1.5 1.5 2.5
vertex 1.5 1.5 2.48078528040323
vertex 0.19509032201612847 1.5 2.48078528040323
endloop
endfacet
facet normal 0 1 0
outer loop
vertex 1.5 1.5 2.5
vertex 0.19509032201612847 1.5 2.48078528040323
vertex -1.1102230246251565e-15 1.5 2.5
endloop
endfacet
facet normal 0 1 0
outer loop
vertex -0.19509032201612975 1.5 2.48078528040323
vertex -0.38268343236508917 1.5 2.423879532511287
vertex -1.5 1.5 2.423879532511287
endloop
endfacet
facet normal 0 1 0
outer loop
vertex -0.19509032201612975 1.5 2.48078528040323
vertex -1.5 1.5 2.423879532511287
vertex -1.5 1.5 2.48078528040323
endloop
endfacet
facet normal 0 1 0
outer loop
vertex 1.5 1.5 2.48078528040323
vertex 1.5 1.5 2.423879532511287
vertex 0.38268343236508917 1.5 2.423879532511287
endloop
endfacet
facet normal 0 1 0
outer loop
vertex 1.5 1.5 2.48078528040323
vertex 0.38268343236508917 1.5 2.423879532511287
vertex 0.19509032201612847 1.5 2.48078528040323
endloop
endfacet
facet normal 0 1 0
outer loop
vertex -0.38268343236508917 1.5 2.423879532511287
vertex -0.5555702330196028 1.5 2.331469612302545
vertex -1.5 1.5 2.331469612302545
endloop
endfacet
facet normal 0 1 0
outer loop
vertex -0.38268343236508917 1.5 2.423879532511287
vertex -1.5 1.5 2.331469612302545
vertex -1.5 1.5 2.423879532511287
endloop
endfacet
facet normal 0 1 0
outer loop
vertex 1.5 1.5 2.423879532511287
vertex 1.5 1.5 2.331469612302545
vertex 0.5555702330196042 1.5 2.331469612302545
endloop
endfacet
facet normal 0 1 0
outer loop
vertex 1.5 1.5 2.423879532511287
vertex 0.5555702330196042 1.5 2.331469612302545
vertex 0.38268343236508917 1.5 2.423879532511287
endloop
endfacet
facet normal 0 1 0
outer loop
vertex -0.5555702330196028 1.5 2.331469612302545
vertex -0.7071067811865478 1.5 2.2071067811865475
vertex -1.5 1.5 2.2071067811865475
endloop
endfacet
facet normal 0 1 0
outer loop
vertex -0.5555702330196028 1.5 2.331469612302545
vertex -1.5 1.5 2.2071067811865475
vertex -1.5 1.5 2.331469612302545
endloop
endfacet
facet normal 0 1 0
outer loop
vertex 1.5 1.5 2.331469612302545
vertex 1.5 1.5 2.2071067811865475
vertex 0.7071067811865458 1.5 2.2071067811865475
endloop
endfacet
facet normal 0 1 0
outer loop
vertex 1.5 1.5 2.331469612302545
vertex 0.7071067811865458 1.5 2.2071067811865475
vertex 0.5555702330196042 1.5 2.331469612302545
endloop
endfacet
facet normal 0 1 0
outer loop
vertex -0.7071067811865478 1.5 2.2071067811865475
vertex -0.831469612302545 1.5 2.0555702330196026
vertex -1.5 1.5 2.0555702330196026
endloop
endfacet
facet normal 0 1 0
outer loop
vertex -0.7071067811865478 1.5 2.2071067811865475
vertex -1.5 1.5 2.0555702330196026
vertex -1.5 1.5 2.2071067811865475
endloop
endfacet
facet normal 0 1 0
outer loop
vertex 1.5 1.5 2.2071067811865475
vertex 1.5 1.5 2.0555702330196026
vertex 0.8314696123025453 1.5 2.0555702330196026
endloop
endfacet
facet normal 0 1 0
outer loop
vertex 1.5 1.5 2.2071067811865475
vertex 0.8314696123025453 1.5 2.0555702330196026
vertex 0.7071067811865458 1.5 2.2071067811865475
endloop
endfacet
facet normal 0 1 0
outer loop
vertex -0.831469612302545 1.5 2.0555702330196026
vertex -0.9238795325112872 1.5 1.8826834323650887
vertex -1.5 1.5 1.8826834323650887
endloop
endfacet
facet normal 0 1 0
outer loop
vertex -0.831469612302545 1.5 2.0555702330196026
vertex -1.5 1.5 1.8826834323650887
vertex -1.5 1.5 2.0555702330196026
endloop
endfacet
facet normal 0 1 0
outer loop
vertex 1.5 1.5 2.0555702330196026
vertex 1.5 1.5 1.8826834323650887
vertex 0.9238795325112877 1.5 1.8826834323650887
endloop
endfacet
facet normal 0 1 0
outer loop
vertex 1.5 1.5 2.0555702330196026
vertex 0.9238795325112877 1.5 1.8826834323650887
vertex 0.8314696123025453 1.5 2.0555702330196026
endloop
endfacet
facet normal 0 1 0
outer loop
vertex -0.9238795325112872 1.5 1.8826834323650887
vertex -0.9807852804032302 1.5 1.695090322016129
vertex -1.5 1.5 1.695090322016129
endloop
endfacet
facet normal 0 1 0
outer loop
vertex -0.9238795325112872 1.5 1.8826834323650887
vertex -1.5 1.5 1.695090322016129
vertex -1.5 1.5 1.8826834323650887
endloop
endfacet
facet normal 0 1 0
outer loop
vertex 1.5 1.5 1.8826834323650887
vertex 1.5 1.5 1.695090322016129
vertex 0.9807852804032302 1.5 1.695090322016129
endloop
endfacet
facet normal 0 1 0
outer loop
vertex 1.5 1.5 1.8826834323650887
vertex 0.9807852804032302 1.5 1.695090322016129
vertex 0.9238795325112877 1.5 1.8826834323650887
endloop
endfacet
facet normal 0 1 0
outer loop
vertex -0.9807852804032302 1.5 1.695090322016129
vertex -0.9999999999999999 1.5 1.4999999999999996
vertex -1.5 1.5 1.4999999999999996
endloop
endfacet
facet normal 0 1 0
outer loop
vertex -0.9807852804032302 1.5 1.695090322016129
vertex -1.5 1.5 1.4999999999999996
vertex -1.5 1.5 1.695090322016129
endloop
endfacet
facet normal 0 1 0
outer loop
vertex 1.5 1.5 1.695090322016129
vertex 1.5 1.5 1.4999999999999996
vertex 0.9999999999999999 1.5 1.4999999999999996
endloop
endfacet
facet normal 0 1 0
outer loop
vertex 1.5 1.5 1.695090322016129
vertex 0.9999999999999999 1.5 1.4999999999999996
vertex 0.9807852804032302 1.5 1.695090322016129
endloop
endfacet
facet normal 0 1 0
outer loop
vertex -0.9999999999999999 1.5 1.4999999999999996
vertex -0.9807852804032303 1.5 1.304909677983871
vertex -1.5 1.5 1.304909677983871
endloop
endfacet
facet normal 0 1 0
outer loop
vertex -0.9999999999999999 1.5 1.4999999999999996
vertex -1.5 1.5 1.304909677983871
vertex -1.5 1.5 1.4999999999999996
endloop
endfacet
facet normal 0 1 0
outer loop
vertex 1.5 1.5 1.4999999999999996
vertex 1.5 1.5 1.304909677983871
vertex 0.9807852804032302 1.5 1.304909677983871
endloop
endfacet
facet normal 0 1 0
outer loop
vertex 1.5 1.5 1.4999999999999996
vertex 0.9807852804032302 1.5 1.304909677983871
vertex 0.9999999999999999 1.5 1.4999999999999996
endloop
endfacet
facet normal 0 1 0
outer loop
vertex -0.9807852804032303 1.5 1.304909677983871
vertex -0.9238795325112862 1.5 1.117316567634909
vertex -1.5 1.5 1.117316567634909
endloop
endfacet
facet normal 0 1 0
outer loop
vertex -0.9807852804032303 1.5 1.304909677983871
vertex -1.5 1.5 1.117316567634909
vertex -1.5 1.5 1.304909677983871
endloop
endfacet
facet normal 0 1 0
outer loop
vertex 1.5 1.5 1.304909677983871
vertex 1.5 1.5 1.117316567634909
vertex 0.9238795325112865 1.5 1.117316567634909
endloop
endfacet
facet normal 0 1 0
outer loop
vertex 1.5 1.5 1.304909677983871
vertex 0.9238795325112865 1.5 1.117316567634909
vertex 0.9807852804032302 1.5 1.304909677983871
endloop
endfacet
facet normal 0 1 0
outer loop
vertex -0.9238795325112862 1.5 1.117316567634909
vertex -0.831469612302545 1.5 0.9444297669803994
vertex -1.5 1.5 0.9444297669803994
endloop
endfacet
facet normal 0 1 0
outer loop
vertex -0.9238795325112862 1.5 1.117316567634909
vertex -1.5 1.5 0.9444297669803994
vertex -1.5 1.5 1.117316567634909
endloop
endfacet
facet normal 0 1 0
outer loop
vertex 1.5 1.5 1.117316567634909
vertex 1.5 1.5 0.9444297669803994
vertex 0.8314696123025465 1.5 0.9444297669803994
endloop
endfacet
facet normal 0 1 0
outer loop
vertex 1.5 1.5 1.117316567634909
vertex 0.8314696123025465 1.5 0.9444297669803994
vertex 0.9238795325112865 1.5 1.117316567634909
endloop
endfacet
facet normal 0 1 0
outer loop
vertex -0.831469612302545 1.5 0.9444297669803994
vertex -0.7071067811865486 1.5 0.7928932188134518
vertex -1.5 1.5 0.7928932188134518
endloop
endfacet
facet normal 0 1 0
outer loop
vertex -0.831469612302545 1.5 0.9444297669803994
vertex -1.5 1.5 0.7928932188134518
vertex -1.5 1.5 0.9444297669803994
endloop
endfacet
facet normal 0 1 0
outer loop
vertex 1.5 1.5 0.9444297669803994
vertex 1.5 1.5 0.7928932188134518
vertex 0.7071067811865468 1.5 0.7928932188134518
endloop
endfacet
facet normal 0 1 0
outer loop
vertex 1.5 1.5 0.9444297669803994
vertex 0.7071067811865468 1.5 0.7928932188134518
vertex 0.8314696123025465 1.5 0.9444297669803994
endloop
endfacet
facet normal 0 1 0
outer loop
vertex -0.7071067811865486 1.5 0.7928932188134518
vertex -0.5555702330196013 1.5 0.6685303876974547
vertex -1.5 1.5 0.6685303876974547
endloop
endfacet
facet normal 0 1 0
outer loop
vertex -0.7071067811865486 1.5 0.7928932188134518
vertex -1.5 1.5 0.6685303876974547
vertex -1.5 1.5 0.7928932188134518
endloop
endfacet
facet normal 0 1 0
outer loop
vertex 1.5 1.5 0.7928932188134518
vertex 1.5 1.5 0.6685303876974547
vertex 0.5555702330196023 1.5 0.6685303876974547
endloop
endfacet
facet normal 0 1 0
outer loop
vertex 1.5 1.5 0.7928932188134518
vertex 0.5555702330196023 1.5 0.6685303876974547
vertex 0.7071067811865468 1.5 0.7928932188134518
endloop
endfacet
facet normal 0 1 0
outer loop
vertex -0.5555702330196013 1.5 0.6685303876974547
vertex -0.38268343236509006 1.5 0.5761204674887128
vertex -1.5 1.5 0.5761204674887128
endloop
endfacet
facet normal 0 1 0
outer loop
vertex -0.5555702330196013 1.5 0.6685303876974547
vertex -1.5 1.5 0.5761204674887128
vertex -1.5 1.5 0.6685303876974547
endloop
endfacet
facet normal 0 1 0
outer loop
vertex 1.5 1.5 0.6685303876974547
vertex 1.5 1.5 0.5761204674887128
vertex 0.3826834323650893 1.5 0.5761204674887128
endloop
endfacet
facet normal 0 1 0
outer loop
vertex 1.5 1.5 0.6685303876974547
vertex 0.3826834323650893 1.5 0.5761204674887128
vertex 0.5555702330196023 1.5 0.6685303876974547
endloop
endfacet
facet normal 0 1 0
outer loop
vertex -0.38268343236509006 1.5 0.5761204674887128
vertex -0.19509032201612841 1.5 0.5192147195967699
vertex -1.5 1.5 0.5192147195967699
endloop
endfacet
facet normal 0 1 0
outer loop
vertex -0.38268343236509006 1.5 0.5761204674887128
vertex -1.5 1.5 0.5192147195967699
vertex -1.5 1.5 0.5761204674887128
endloop
endfacet
facet normal 0 1 0
outer loop
vertex 1.5 1.5 0.5761204674887128
vertex 1.5 1.5 0.5192147195967699
vertex 0.19509032201613036 1.5 0.5192147195967699
endloop
endfacet
facet normal 0 1 0
outer loop
vertex 1.5 1.5 0.5761204674887128
vertex 0.19509032201613036 1.5 0.5192147195967699
vertex 0.3826834323650893 1.5 0.5761204674887128
endloop
endfacet
facet normal 0 1 0
outer loop
vertex -0.19509032201612841 1.5 0.5192147195967699
vertex -1.1102230246251565e-15 1.5 0.5
vertex -1.5 1.5 0.5
endloop
endfacet
facet normal 0 1 0
outer loop
vertex -0.19509032201612841 1.5 0.5192147195967699
vertex -1.5 1.5 0.5
vertex -1.5 1.5 0.5192147195967699
endloop
endfacet
facet normal 0 1 0
outer loop
vertex 1.5 1.5 0.5192147195967699
vertex 1.5 1.5 0.5
vertex -1.1102230246251565e-15 1.5 0.5
endloop
endfacet
facet normal 0 1 0
outer loop
vertex 1.5 1.5 0.5192147195967699
vertex -1.1102230246251565e-15 1.5 0.5
vertex 0.19509032201613036 1.5 0.5192147195967699
endloop
endfacet
facet normal 0 1 0
outer loop
vertex 1.5 1.5 0.5
vertex 1.5 1.5 0
vertex -1.5 1.5 0
endloop
endfacet
facet normal 0 1 0
outer loop
vertex 1.5 1.5 0.5
vertex -1.5 1.5 0
vertex -1.5 1.5 0.5
endloop
endfacet
facet normal 0 -1 0
outer loop
vertex 1.5 -1.5 0
vertex 1.5 -1.5 0.5000000000000002
vertex -1.5 -1.5 0.5000000000000002
endloop
endfacet
facet normal 0 -1 0
outer loop
vertex 1.5 -1.5 0
vertex -1.5 -1.5 0.5000000000000002
vertex -1.5 -1.5 0
endloop
endfacet
facet normal 0 -1 0
outer loop
vertex -3.3306690738754696e-16 -1.5 0.5000000000000002
vertex -0.1950903220161309 -1.5 0.51921471959677
vertex -1.5 -1.5 0.51921471959677
endloop
endfacet
facet normal 0 -1 0
outer loop
vertex -3.3306690738754696e-16 -1.5 0.5000000000000002
vertex -1.5 -1.5 0.51921471959677
vertex -1.5 -1.5 0.5000000000000002
endloop
endfacet
facet normal 0 -1 0
outer loop
vertex 1.5 -1.5 0.5000000000000002
vertex 1.5 -1.5 0.51921471959677
vertex 0.19509032201612975 -1.5 0.51921471959677
endloop
endfacet
facet normal 0 -1 0
outer loop
vertex 1.5 -1.5 0.5000000000000002
vertex 0.19509032201612975 -1.5 0.51921471959677
vertex -3.3306690738754696e-16 -1.5 0.5000000000000002
endloop
endfacet
facet normal 0 -1 0
outer loop
vertex -0.1950903220161309 -1.5 0.51921471959677
vertex -0.38268343236508856 -1.5 0.576120467488713
vertex -1.5 -1.5 0.576120467488713
endloop
endfacet
facet normal 0 -1 0
outer loop
vertex -0.1950903220161309 -1.5 0.51921471959677
vertex -1.5 -1.5 0.576120467488713
vertex -1.5 -1.5 0.51921471959677
endloop
endfacet
facet normal 0 -1 0
outer loop
vertex 1.5 -1.5 0.51921471959677
vertex 1.5 -1.5 0.576120467488713
vertex 0.38268343236508917 -1.5 0.576120467488713
endloop
endfacet
facet normal 0 -1 0
outer loop
vertex 1.5 -1.5 0.51921471959677
vertex 0.38268343236508917 -1.5 0.576120467488713
vertex 0.19509032201612975 -1.5 0.51921471959677
endloop
endfacet
facet normal 0 -1 0
outer loop
vertex -0.38268343236508856 -1.5 0.576120467488713
vertex -0.5555702330196018 -1.5 0.6685303876974548
vertex -1.5 -1.5 0.6685303876974548
endloop
endfacet
facet normal 0 -1 0
outer loop
vertex -0.38268343236508856 -1.5 0.576120467488713
vertex -1.5 -1.5 0.6685303876974548
vertex -1.5 -1.5 0.576120467488713
endloop
endfacet
facet normal 0 -1 0
outer loop
vertex 1.5 -1.5 0.576120467488713
vertex 1.5 -1.5 0.6685303876974548
vertex 0.5555702330196022 -1.5 0.6685303876974548
endloop
endfacet
facet normal 0 -1 0
outer loop
vertex 1.5 -1.5 0.576120467488713
vertex 0.5555702330196022 -1.5 0.6685303876974548
vertex 0.38268343236508917 -1.5 0.576120467488713
endloop
endfacet
facet normal 0 -1 0
outer loop
vertex -0.5555702330196018 -1.5 0.6685303876974548
vertex -0.707106781186547 -1.5 0.7928932188134522
vertex -1.5 -1.5 0.7928932188134522
endloop
endfacet
facet normal 0 -1 0
outer loop
vertex -0.5555702330196018 -1.5 0.6685303876974548
vertex -1.5 -1.5 0.7928932188134522
vertex -1.5 -1.5 0.6685303876974548
endloop
endfacet
facet normal 0 -1 0
outer loop
vertex 1.5 -1.5 0.6685303876974548
vertex 1.5 -1.5 0.7928932188134522
vertex 0.7071067811865469 -1.5 0.7928932188134522
endloop
endfacet
facet normal 0 -1 0
outer loop
vertex 1.5 -1.5 0.6685303876974548
vertex 0.7071067811865469 -1.5 0.7928932188134522
vertex 0.5555702330196022 -1.5 0.6685303876974548
endloop
endfacet
facet normal 0 -1 0
outer loop
vertex -0.707106781186547 -1.5 0.7928932188134522
vertex -0.8314696123025472 -1.5 0.9444297669803993
vertex -1.5 -1.5 0.9444297669803993
endloop
endfacet
facet normal 0 -1 0
outer loop
vertex -0.707106781186547 -1.5 0.7928932188134522
vertex -1.5 -1.5 0.9444297669803993
vertex -1.5 -1.5 0.7928932188134522
endloop
endfacet
facet normal 0 -1 0
outer loop
vertex 1.5 -1.5 0.7928932188134522
vertex 1.5 -1.5 0.9444297669803993
vertex 0.831469612302546 -1.5 0.9444297669803993
endloop
endfacet
facet normal 0 -1 0
outer loop
vertex 1.5 -1.5 0.7928932188134522
vertex 0.831469612302546 -1.5 0.9444297669803993
vertex 0.7071067811865469 -1.5 0.7928932188134522
endloop
endfacet
facet normal 0 -1 0
outer loop
vertex -0.8314696123025472 -1.5 0.9444297669803993
vertex -0.9238795325112865 -1.5 1.1173165676349104
vertex -1.5 -1.5 1.1173165676349104
endloop
endfacet
facet normal 0 -1 0
outer loop
vertex -0.8314696123025472 -1.5 0.9444297669803993
vertex -1.5 -1.5 1.1173165676349104
vertex -1.5 -1.5 0.9444297669803993
endloop
endfacet
facet normal 0 -1 0
outer loop
vertex 1.5 -1.5 0.9444297669803993
vertex 1.5 -1.5 1.1173165676349104
vertex 0.923879532511287 -1.5 1.1173165676349104
endloop
endfacet
facet normal 0 -1 0
outer loop
vertex 1.5 -1.5 0.9444297669803993
vertex 0.923879532511287 -1.5 1.1173165676349104
vertex 0.831469612302546 -1.5 0.9444297669803993
endloop
endfacet
facet normal 0 -1 0
outer loop
vertex -0.9238795325112865 -1.5 1.1173165676349104
vertex -0.9807852804032295 -1.5 1.3049096779838705
vertex -1.5 -1.5 1.3049096779838705
endloop
endfacet
facet normal 0 -1 0
outer loop
vertex -0.9238795325112865 -1.5 1.1173165676349104
vertex -1.5 -1.5 1.3049096779838705
vertex -1.5 -1.5 1.1173165676349104
endloop
endfacet
facet normal 0 -1 0
outer loop
vertex 1.5 -1.5 1.1173165676349104
vertex 1.5 -1.5 1.3049096779838705
vertex 0.9807852804032302 -1.5 1.3049096779838705
endloop
endfacet
facet normal 0 -1 0
outer loop
vertex 1.5 -1.5 1.1173165676349104
vertex 0.9807852804032302 -1.5 1.3049096779838705
vertex 0.923879532511287 -1.5 1.1173165676349104
endloop
endfacet
facet normal 0 -1 0
outer loop
vertex -0.9807852804032295 -1.5 1.3049096779838705
vertex -1 -1.5 1.5000000000000007
vertex -1.5 -1.5 1.5000000000000007
endloop
endfacet
facet normal 0 -1 0
outer loop
vertex -0.9807852804032295 -1.5 1.3049096779838705
vertex -1.5 -1.5 1.5000000000000007
vertex -1.5 -1.5 1.3049096779838705
endloop
endfacet
facet normal 0 -1 0
outer loop
vertex 1.5 -1.5 1.3049096779838705
vertex 1.5 -1.5 1.5000000000000007
vertex 0.9999999999999999 -1.5 1.5000000000000007
endloop
endfacet
facet normal 0 -1 0
outer loop
vertex 1.5 -1.5 1.3049096779838705
vertex 0.9999999999999999 -1.5 1.5000000000000007
vertex 0.9807852804032302 -1.5 1.3049096779838705
endloop
endfacet
facet normal 0 -1 0
outer loop
vertex -1 -1.5 1.5000000000000007
vertex -0.9807852804032303 -1.5 1.695090322016129
vertex -1.5 -1.5 1.695090322016129
endloop
endfacet
facet normal 0 -1 0
outer loop
vertex -1 -1.5 1.5000000000000007
vertex -1.5 -1.5 1.695090322016129
vertex -1.5 -1.5 1.5000000000000007
endloop
endfacet
facet normal 0 -1 0
outer loop
vertex 1.5 -1.5 1.5000000000000007
vertex 1.5 -1.5 1.695090322016129
vertex 0.9807852804032302 -1.5 1.695090322016129
endloop
endfacet
facet normal 0 -1 0
outer loop
vertex 1.5 -1.5 1.5000000000000007
vertex 0.9807852804032302 -1.5 1.695090322016129
vertex 0.9999999999999999 -1.5 1.5000000000000007
endloop
endfacet
facet normal 0 -1 0
outer loop
vertex -0.9807852804032303 -1.5 1.695090322016129
vertex -0.9238795325112871 -1.5 1.8826834323650892
vertex -1.5 -1.5 1.8826834323650892
endloop
endfacet
facet normal 0 -1 0
outer loop
vertex -0.9807852804032303 -1.5 1.695090322016129
vertex -1.5 -1.5 1.8826834323650892
vertex -1.5 -1.5 1.695090322016129
endloop
endfacet
facet normal 0 -1 0
outer loop
vertex 1.5 -1.5 1.695090322016129
vertex 1.5 -1.5 1.8826834323650892
vertex 0.9238795325112867 -1.5 1.8826834323650892
endloop
endfacet
facet normal 0 -1 0
outer loop
vertex 1.5 -1.5 1.695090322016129
vertex 0.9238795325112867 -1.5 1.8826834323650892
vertex 0.9807852804032302 -1.5 1.695090322016129
endloop
endfacet
facet normal 0 -1 0
outer loop
vertex -0.9238795325112871 -1.5 1.8826834323650892
vertex -0.8314696123025456 -1.5 2.0555702330196017
vertex -1.5 -1.5 2.0555702330196017
endloop
endfacet
facet normal 0 -1 0
outer loop
vertex -0.9238795325112871 -1.5 1.8826834323650892
vertex -1.5 -1.5 2.0555702330196017
vertex -1.5 -1.5 1.8826834323650892
endloop
endfacet
facet normal 0 -1 0
outer loop
vertex 1.5 -1.5 1.8826834323650892
vertex 1.5 -1.5 2.0555702330196017
vertex 0.8314696123025457 -1.5 2.0555702330196017
endloop
endfacet
facet normal 0 -1 0
outer loop
vertex 1.5 -1.5 1.8826834323650892
vertex 0.8314696123025457 -1.5 2.0555702330196017
vertex 0.9238795325112867 -1.5 1.8826834323650892
endloop
endfacet
facet normal 0 -1 0
outer loop
vertex -0.8314696123025456 -1.5 2.0555702330196017
vertex -0.7071067811865476 -1.5 2.2071067811865475
vertex -1.5 -1.5 2.2071067811865475
endloop
endfacet
facet normal 0 -1 0
outer loop
vertex -0.8314696123025456 -1.5 2.0555702330196017
vertex -1.5 -1.5 2.2071067811865475
vertex -1.5 -1.5 2.0555702330196017
endloop
endfacet
facet normal 0 -1 0
outer loop
vertex 1.5 -1.5 2.0555702330196017
vertex 1.5 -1.5 2.2071067811865475
vertex 0.7071067811865483 -1.5 2.2071067811865475
endloop
endfacet
facet normal 0 -1 0
outer loop
vertex 1.5 -1.5 2.0555702330196017
vertex 0.7071067811865483 -1.5 2.2071067811865475
vertex 0.8314696123025457 -1.5 2.0555702330196017
endloop
endfacet
facet normal 0 -1 0
outer loop
vertex -0.7071067811865476 -1.5 2.2071067811865475
vertex -0.5555702330196022 -1.5 2.3314696123025453
vertex -1.5 -1.5 2.3314696123025453
endloop
endfacet
facet normal 0 -1 0
outer loop
vertex -0.7071067811865476 -1.5 2.2071067811865475
vertex -1.5 -1.5 2.3314696123025453
vertex -1.5 -1.5 2.2071067811865475
endloop
endfacet
facet normal 0 -1 0
outer loop
vertex 1.5 -1.5 2.2071067811865475
vertex 1.5 -1.5 2.3314696123025453
vertex 0.5555702330196005 -1.5 2.3314696123025453
endloop
endfacet
facet normal 0 -1 0
outer loop
vertex 1.5 -1.5 2.2071067811865475
vertex 0.5555702330196005 -1.5 2.3314696123025453
vertex 0.7071067811865483 -1.5 2.2071067811865475
endloop
endfacet
facet normal 0 -1 0
outer loop
vertex -0.5555702330196022 -1.5 2.3314696123025453
vertex -0.38268343236508906 -1.5 2.423879532511287
vertex -1.5 -1.5 2.423879532511287
endloop
endfacet
facet normal 0 -1 0
outer loop
vertex -0.5555702330196022 -1.5 2.3314696123025453
vertex -1.5 -1.5 2.423879532511287
vertex -1.5 -1.5 2.3314696123025453
endloop
endfacet
facet normal 0 -1 0
outer loop
vertex 1.5 -1.5 2.3314696123025453
vertex 1.5 -1.5 2.423879532511287
vertex 0.38268343236509006 -1.5 2.423879532511287
endloop
endfacet
facet normal 0 -1 0
outer loop
vertex 1.5 -1.5 2.3314696123025453
vertex 0.38268343236509006 -1.5 2.423879532511287
vertex 0.5555702330196005 -1.5 2.3314696123025453
endloop
endfacet
facet normal 0 -1 0
outer loop
vertex -0.38268343236508906 -1.5 2.423879532511287
vertex -0.19509032201612944 -1.5 2.4807852804032304
vertex -1.5 -1.5 2.4807852804032304
endloop
endfacet
facet normal 0 -1 0
outer loop
vertex -0.38268343236508906 -1.5 2.423879532511287
vertex -1.5 -1.5 2.4807852804032304
vertex -1.5 -1.5 2.423879532511287
endloop
endfacet
facet normal 0 -1 0
outer loop
vertex 1.5 -1.5 2.423879532511287
vertex 1.5 -1.5 2.4807852804032304
vertex 0.19509032201612897 -1.5 2.4807852804032304
endloop
endfacet
facet normal 0 -1 0
outer loop
vertex 1.5 -1.5 2.423879532511287
vertex 0.19509032201612897 -1.5 2.4807852804032304
vertex 0.38268343236509006 -1.5 2.423879532511287
endloop
endfacet
facet normal 0 -1 0
outer loop
vertex -0.19509032201612944 -1.5 2.4807852804032304
vertex 5.551115123125783e-17 -1.5 2.5
vertex -1.5 -1.5 2.5
endloop
endfacet
facet normal 0 -1 0
outer loop
vertex -0.19509032201612944 -1.5 2.4807852804032304
vertex -1.5 -1.5 2.5
vertex -1.5 -1.5 2.4807852804032304
endloop
endfacet
facet normal 0 -1 0
outer loop
vertex 1.5 -1.5 2.4807852804032304
vertex 1.5 -1.5 2.5
vertex 5.551115123125783e-17 -1.5 2.5
endloop
endfacet
facet normal 0 -1 0
outer loop
vertex 1.5 -1.5 2.4807852804032304
vertex 5.551115123125783e-17 -1.5 2.5
vertex 0.19509032201612897 -1.5 2.4807852804032304
endloop
endfacet
facet normal 0 -1 0
outer loop
vertex 1.5 -1.5 2.5
vertex 1.5 -1.5 3
vertex -1.5 -1.5 3
endloop
endfacet
facet normal 0 -1 0
outer loop
vertex 1.5 -1.5 2.5
vertex -1.5 -1.5 3
vertex -1.5 -1.5 2.5
endloop
endfacet
facet normal -0.9951847266721969 0 0.09801714032956066
outer loop
vertex 0.9807852804032302 1.5 1.304909677983871
vertex 0.9807852804032302 -1.5 1.3049096779838705
vertex 0.9999999999999999 -1.5 1.5000000000000007
endloop
endfacet
facet normal -0.9951847266721969 0 0.09801714032956066
outer loop
vertex 0.9807852804032302 1.5 1.304909677983871
vertex 0.9999999999999999 -1.5 1.5000000000000007
vertex 0.9999999999999999 1.5 1.4999999999999996
endloop
endfacet
facet normal -0.9569403357322088 0 0.2902846772544624
outer loop
vertex 0.9238795325112865 1.5 1.117316567634909
vertex 0.923879532511287 -1.5 1.1173165676349104
vertex 0.9807852804032302 -1.5 1.3049096779838705
endloop
endfacet
facet normal -0.9569403357322088 0 0.2902846772544624
outer loop
vertex 0.9238795325112865 1.5 1.117316567634909
vertex 0.9807852804032302 -1.5 1.3049096779838705
vertex 0.9807852804032302 1.5 1.304909677983871
endloop
endfacet
facet normal -0.8819212643483552 0 0.4713967368259977
outer loop
vertex 0.8314696123025465 1.5 0.9444297669803994
vertex 0.831469612302546 -1.5 0.9444297669803993
vertex 0.923879532511287 -1.5 1.1173165676349104
endloop
endfacet
facet normal -0.8819212643483552 0 0.4713967368259977
outer loop
vertex 0.8314696123025465 1.5 0.9444297669803994
vertex 0.923879532511287 -1.5 1.1173165676349104
vertex 0.9238795325112865 1.5 1.117316567634909
endloop
endfacet
facet normal -0.773010453362737 0 0.6343932841636455
outer loop
vertex 0.7071067811865468 1.5 0.7928932188134518
vertex 0.7071067811865469 -1.5 0.7928932188134522
vertex 0.831469612302546 -1.5 0.9444297669803993
endloop
endfacet
facet normal -0.773010453362737 0 0.6343932841636455
outer loop
vertex 0.7071067811865468 1.5 0.7928932188134518
vertex 0.831469612302546 -1.5 0.9444297669803993
vertex 0.8314696123025465 1.5 0.9444297669803994
endloop
endfacet
facet normal -0.6343932841636457 8.582140035992414e-17 0.7730104533627369
outer loop
vertex 0.5555702330196023 1.5 0.6685303876974547
vertex 0.5555702330196022 -1.5 0.6685303876974548
vertex 0.7071067811865469 -1.5 0.7928932188134522
endloop
endfacet
facet normal -0.6343932841636457 8.582140035992414e-17 0.7730104533627369
outer loop
vertex 0.5555702330196023 1.5 0.6685303876974547
vertex 0.7071067811865469 -1.5 0.7928932188134522
vertex 0.7071067811865468 1.5 0.7928932188134518
endloop
endfacet
facet normal -0.4713967368259976 1.2408070490647673e-16 0.881921264348355
outer loop
vertex 0.3826834323650893 1.5 0.5761204674887128
vertex 0.38268343236508917 -1.5 0.576120467488713
vertex 0.5555702330196022 -1.5 0.6685303876974548
endloop
endfacet
facet normal -0.4713967368259976 1.2408070490647673e-16 0.881921264348355
outer loop
vertex 0.3826834323650893 1.5 0.5761204674887128
vertex 0.5555702330196022 -1.5 0.6685303876974548
vertex 0.5555702330196023 1.5 0.6685303876974547
endloop
endfacet
facet normal -0.2902846772544623 1.2235575601143188e-16 0.9569403357322088
outer loop
vertex 0.19509032201613036 1.5 0.5192147195967699
vertex 0.19509032201612975 -1.5 0.51921471959677
vertex 0.38268343236508917 -1.5 0.576120467488713
endloop
endfacet
facet normal -0.2902846772544623 1.2235575601143188e-16 0.9569403357322088
outer loop
vertex 0.19509032201613036 1.5 0.5192147195967699
vertex 0.38268343236508917 -1.5 0.576120467488713
vertex 0.3826834323650893 1.5 0.5761204674887128
endloop
endfacet
facet normal -0.09801714032956078 1.1184796080569905e-16 0.9951847266721969
outer loop
vertex -1.1102230246251565e-15 1.5 0.5
vertex -3.3306690738754696e-16 -1.5 0.5000000000000002
vertex 0.19509032201612975 -1.5 0.51921471959677
endloop
endfacet
facet normal -0.09801714032956078 1.1184796080569905e-16 0.9951847266721969
outer loop
vertex -1.1102230246251565e-15 1.5 0.5
vertex 0.19509032201612975 -1.5 0.51921471959677
vertex 0.19509032201613036 1.5 0.5192147195967699
endloop
endfacet
facet normal 0.09801714032956066 1.11847960805699e-16 0.9951847266721969
outer loop
vertex -0.19509032201612841 1.5 0.5192147195967699
vertex -0.1950903220161309 -1.5 0.51921471959677
vertex -3.3306690738754696e-16 -1.5 0.5000000000000002
endloop
endfacet
facet normal 0.09801714032956066 1.11847960805699e-16 0.9951847266721969
outer loop
vertex -0.19509032201612841 1.5 0.5192147195967699
vertex -3.3306690738754696e-16 -1.5 0.5000000000000002
vertex -1.1102230246251565e-15 1.5 0.5
endloop
endfacet
facet normal 0.2902846772544624 1.2235575601143188e-16 0.9569403357322089
outer loop
vertex -0.38268343236509006 1.5 0.5761204674887128
vertex -0.38268343236508856 -1.5 0.576120467488713
vertex -0.1950903220161309 -1.5 0.51921471959677
endloop
endfacet
facet normal 0.2902846772544624 1.2235575601143188e-16 0.9569403357322089
outer loop
vertex -0.38268343236509006 1.5 0.5761204674887128
vertex -0.1950903220161309 -1.5 0.51921471959677
vertex -0.19509032201612841 1.5 0.5192147195967699
endloop
endfacet
facet normal 0.47139673682599714 1.2408070490647673e-16 0.8819212643483554
outer loop
vertex -0.5555702330196013 1.5 0.6685303876974547
vertex -0.5555702330196018 -1.5 0.6685303876974548
vertex -0.38268343236508856 -1.5 0.576120467488713
endloop
endfacet
facet normal 0.47139673682599714 1.2408070490647673e-16 0.8819212643483554
outer loop
vertex -0.5555702330196013 1.5 0.6685303876974547
vertex -0.38268343236508856 -1.5 0.576120467488713
vertex -0.38268343236509006 1.5 0.5761204674887128
endloop
endfacet
facet normal 0.6343932841636455 8.582140035992415e-17 0.773010453362737
outer loop
vertex -0.7071067811865486 1.5 0.7928932188134518
vertex -0.707106781186547 -1.5 0.7928932188134522
vertex -0.5555702330196018 -1.5 0.6685303876974548
endloop
endfacet
facet normal 0.6343932841636455 8.582140035992415e-17 0.773010453362737
outer loop
vertex -0.7071067811865486 1.5 0.7928932188134518
vertex -0.5555702330196018 -1.5 0.6685303876974548
vertex -0.5555702330196013 1.5 0.6685303876974547
endloop
endfacet
facet normal 0.7730104533627369 0 0.6343932841636456
outer loop
vertex -0.831469612302545 1.5 0.9444297669803994
vertex -0.8314696123025472 -1.5 0.9444297669803993
vertex -0.707106781186547 -1.5 0.7928932188134522
endloop
endfacet
facet normal 0.7730104533627369 0 0.6343932841636456
outer loop
vertex -0.831469612302545 1.5 0.9444297669803994
vertex -0.707106781186547 -1.5 0.7928932188134522
vertex -0.7071067811865486 1.5 0.7928932188134518
endloop
endfacet
facet normal 0.8819212643483549 0 0.4713967368259976
outer loop
vertex -0.9238795325112862 1.5 1.117316567634909
vertex -0.9238795325112865 -1.5 1.1173165676349104
vertex -0.8314696123025472 -1.5 0.9444297669803993
endloop
endfacet
facet normal 0.8819212643483549 0 0.4713967368259976
outer loop
vertex -0.9238795325112862 1.5 1.117316567634909
vertex -0.8314696123025472 -1.5 0.9444297669803993
vertex -0.831469612302545 1.5 0.9444297669803994
endloop
endfacet
facet normal 0.9569403357322088 0 0.2902846772544628
outer loop
vertex -0.9807852804032303 1.5 1.304909677983871
vertex -0.9807852804032295 -1.5 1.3049096779838705
vertex -0.9238795325112865 -1.5 1.1173165676349104
endloop
endfacet
facet normal 0.9569403357322088 0 0.2902846772544628
outer loop
vertex -0.9807852804032303 1.5 1.304909677983871
vertex -0.9238795325112865 -1.5 1.1173165676349104
vertex -0.9238795325112862 1.5 1.117316567634909
endloop
endfacet
facet normal 0.9951847266721969 0 0.09801714032956058
outer loop
vertex -0.9999999999999999 1.5 1.4999999999999996
vertex -1 -1.5 1.5000000000000007
vertex -0.9807852804032295 -1.5 1.3049096779838705
endloop
endfacet
facet normal 0.9951847266721969 0 0.09801714032956058
outer loop
vertex -0.9999999999999999 1.5 1.4999999999999996
vertex -0.9807852804032295 -1.5 1.3049096779838705
vertex -0.9807852804032303 1.5 1.304909677983871
endloop
endfacet
facet normal 0.9951847266721969 0 -0.09801714032956066
outer loop
vertex -0.9807852804032302 1.5 1.695090322016129
vertex -0.9807852804032303 -1.5 1.695090322016129
vertex -1 -1.5 1.5000000000000007
endloop
endfacet
facet normal 0.9951847266721969 0 -0.09801714032956066
outer loop
vertex -0.9807852804032302 1.5 1.695090322016129
vertex -1 -1.5 1.5000000000000007
vertex -0.9999999999999999 1.5 1.4999999999999996
endloop
endfacet
facet normal 0.956940335732209 0 -0.29028467725446205
outer loop
vertex -0.9238795325112872 1.5 1.8826834323650887
vertex -0.9238795325112871 -1.5 1.8826834323650892
vertex -0.9807852804032303 -1.5 1.695090322016129
endloop
endfacet
facet normal 0.956940335732209 0 -0.29028467725446205
outer loop
vertex -0.9238795325112872 1.5 1.8826834323650887
vertex -0.9807852804032303 -1.5 1.695090322016129
vertex -0.9807852804032302 1.5 1.695090322016129
endloop
endfacet
facet normal 0.8819212643483552 0 -0.47139673682599736
outer loop
vertex -0.831469612302545 1.5 2.0555702330196026
vertex -0.8314696123025456 -1.5 2.0555702330196017
vertex -0.9238795325112871 -1.5 1.8826834323650892
endloop
endfacet
facet normal 0.8819212643483552 0 -0.47139673682599736
outer loop
vertex -0.831469612302545 1.5 2.0555702330196026
vertex -0.9238795325112871 -1.5 1.8826834323650892
vertex -0.9238795325112872 1.5 1.8826834323650887
endloop
endfacet
facet normal 0.7730104533627373 0 -0.6343932841636452
outer loop
vertex -0.7071067811865478 1.5 2.2071067811865475
vertex -0.7071067811865476 -1.5 2.2071067811865475
vertex -0.8314696123025456 -1.5 2.0555702330196017
endloop
endfacet
facet normal 0.7730104533627373 0 -0.6343932841636452
outer loop
vertex -0.7071067811865478 1.5 2.2071067811865475
vertex -0.8314696123025456 -1.5 2.0555702330196017
vertex -0.831469612302545 1.5 2.0555702330196026
endloop
endfacet
facet normal 0.6343932841636453 0 -0.7730104533627373
outer loop
vertex -0.5555702330196028 1.5 2.331469612302545
vertex -0.5555702330196022 -1.5 2.3314696123025453
vertex -0.7071067811865476 -1.5 2.2071067811865475
endloop
endfacet
facet normal 0.6343932841636453 0 -0.7730104533627373
outer loop
vertex -0.5555702330196028 1.5 2.331469612302545
vertex -0.7071067811865476 -1.5 2.2071067811865475
vertex -0.7071067811865478 1.5 2.2071067811865475
endloop
endfacet
facet normal 0.47139673682599825 -4.1781949298229836e-16 -0.8819212643483547
outer loop
vertex -0.38268343236508917 1.5 2.423879532511287
vertex -0.38268343236508906 -1.5 2.423879532511287
vertex -0.5555702330196022 -1.5 2.3314696123025453
endloop
endfacet
facet normal 0.47139673682599825 -4.1781949298229836e-16 -0.8819212643483547
outer loop
vertex -0.38268343236508917 1.5 2.423879532511287
vertex -0.5555702330196022 -1.5 2.3314696123025453
vertex -0.5555702330196028 1.5 2.331469612302545
endloop
endfacet
facet normal 0.2902846772544625 -4.4108091418815957e-16 -0.9569403357322088
outer loop
vertex -0.19509032201612975 1.5 2.48078528040323
vertex -0.19509032201612944 -1.5 2.4807852804032304
vertex -0.38268343236508906 -1.5 2.423879532511287
endloop
endfacet
facet normal 0.2902846772544625 -4.4108091418815957e-16 -0.9569403357322088
outer loop
vertex -0.19509032201612975 1.5 2.48078528040323
vertex -0.38268343236508906 -1.5 2.423879532511287
vertex -0.38268343236508917 1.5 2.423879532511287
endloop
endfacet
facet normal 0.0980171403295609 -1.3602610750224189e-18 -0.9951847266721969
outer loop
vertex -1.1102230246251565e-15 1.5 2.5
vertex 5.551115123125783e-17 -1.5 2.5
vertex -0.19509032201612944 -1.5 2.4807852804032304
endloop
endfacet
facet normal 0.0980171403295609 -1.3602610750224189e-18 -0.9951847266721969
outer loop
vertex -1.1102230246251565e-15 1.5 2.5
vertex -0.19509032201612944 -1.5 2.4807852804032304
vertex -0.19509032201612975 1.5 2.48078528040323
endloop
endfacet
facet normal -0.09801714032956044 -1.3602610750224121e-18 -0.9951847266721969
outer loop
vertex 0.19509032201612847 1.5 2.48078528040323
vertex 0.19509032201612897 -1.5 2.4807852804032304
vertex 5.551115123125783e-17 -1.5 2.5
endloop
endfacet
facet normal -0.09801714032956044 -1.3602610750224121e-18 -0.9951847266721969
outer loop
vertex 0.19509032201612847 1.5 2.48078528040323
vertex 5.551115123125783e-17 -1.5 2.5
vertex -1.1102230246251565e-15 1.5 2.5
endloop
endfacet
facet normal -0.2902846772544625 -4.4108091418815957e-16 -0.9569403357322088
outer loop
vertex 0.38268343236508917 1.5 2.423879532511287
vertex 0.38268343236509006 -1.5 2.423879532511287
vertex 0.19509032201612897 -1.5 2.4807852804032304
endloop
endfacet
facet normal -0.2902846772544625 -4.4108091418815957e-16 -0.9569403357322088
outer loop
vertex 0.38268343236508917 1.5 2.423879532511287
vertex 0.19509032201612897 -1.5 2.4807852804032304
vertex 0.19509032201612847 1.5 2.48078528040323
endloop
endfacet
facet normal -0.4713967368259973 -4.1781949298229866e-16 -0.8819212643483553
outer loop
vertex 0.5555702330196042 1.5 2.331469612302545
vertex 0.5555702330196005 -1.5 2.3314696123025453
vertex 0.38268343236509006 -1.5 2.423879532511287
endloop
endfacet
facet normal -0.4713967368259973 -4.1781949298229866e-16 -0.8819212643483553
outer loop
vertex 0.5555702330196042 1.5 2.331469612302545
vertex 0.38268343236509006 -1.5 2.423879532511287
vertex 0.38268343236508917 1.5 2.423879532511287
endloop
endfacet
facet normal -0.6343932841636452 0 -0.7730104533627373
outer loop
vertex 0.7071067811865458 1.5 2.2071067811865475
vertex 0.7071067811865483 -1.5 2.2071067811865475
vertex 0.5555702330196005 -1.5 2.3314696123025453
endloop
endfacet
facet normal -0.6343932841636452 0 -0.7730104533627373
outer loop
vertex 0.7071067811865458 1.5 2.2071067811865475
vertex 0.5555702330196005 -1.5 2.3314696123025453
vertex 0.5555702330196042 1.5 2.331469612302545
endloop
endfacet
facet normal -0.7730104533627371 0 -0.6343932841636455
outer loop
vertex 0.8314696123025453 1.5 2.0555702330196026
vertex 0.8314696123025457 -1.5 2.0555702330196017
vertex 0.7071067811865483 -1.5 2.2071067811865475
endloop
endfacet
facet normal -0.7730104533627371 0 -0.6343932841636455
outer loop
vertex 0.8314696123025453 1.5 2.0555702330196026
vertex 0.7071067811865483 -1.5 2.2071067811865475
vertex 0.7071067811865458 1.5 2.2071067811865475
endloop
endfacet
facet normal -0.8819212643483549 0 -0.47139673682599803
outer loop
vertex 0.9238795325112877 1.5 1.8826834323650887
vertex 0.9238795325112867 -1.5 1.8826834323650892
vertex 0.8314696123025457 -1.5 2.0555702330196017
endloop
endfacet
facet normal -0.8819212643483549 0 -0.47139673682599803
outer loop
vertex 0.9238795325112877 1.5 1.8826834323650887
vertex 0.8314696123025457 -1.5 2.0555702330196017
vertex 0.8314696123025453 1.5 2.0555702330196026
endloop
endfacet
facet normal -0.9569403357322088 0 -0.29028467725446266
outer loop
vertex 0.9807852804032302 1.5 1.695090322016129
vertex 0.9807852804032302 -1.5 1.695090322016129
vertex 0.9238795325112867 -1.5 1.8826834323650892
endloop
endfacet
facet normal -0.9569403357322088 0 -0.29028467725446266
outer loop
vertex 0.9807852804032302 1.5 1.695090322016129
vertex 0.9238795325112867 -1.5 1.8826834323650892
vertex 0.9238795325112877 1.5 1.8826834323650887
endloop
endfacet
facet normal -0.9951847266721968 0 -0.09801714032956123
outer loop
vertex 0.9999999999999999 1.5 1.4999999999999996
vertex 0.9999999999999999 -1.5 1.5000000000000007
vertex 0.9807852804032302 -1.5 1.695090322016129
endloop
endfacet
facet normal -0.9951847266721968 0 -0.09801714032956123
outer loop
vertex 0.9999999999999999 1.5 1.4999999999999996
vertex 0.9807852804032302 -1.5 1.695090322016129
vertex 0.9807852804032302 1.5 1.695090322016129
endloop
endfacet
endsolid csg.js
